<?xml version="1.0" encoding="UTF-8" standalone="no"?>
<!DOCTYPE svg PUBLIC "-//W3C//DTD SVG 1.1//EN" "http://www.w3.org/Graphics/SVG/1.1/DTD/svg11.dtd">
<svg xmlns="http://www.w3.org/2000/svg" version="1.1" viewBox="0.00 0.00 214.00 214.00">
<g stroke-width="2.00" fill="none" stroke-linecap="butt">
<path stroke="#80ccff" vector-effect="non-scaling-stroke" d="
  M 95.83 78.76
  C 91.94 93.09 83.32 100.54 71.68 112.42
  Q 61.70 122.61 60.42 138.25
  C 55.54 197.94 152.41 205.44 156.61 145.07
  C 157.59 130.95 150.62 121.72 143.82 110.42
  Q 142.12 107.59 142.26 101.13
  Q 142.28 100.33 141.65 100.83
  C 133.15 107.54 134.15 117.06 134.17 128.17
  C 134.19 134.97 130.83 144.46 126.56 149.77
  C 114.41 164.84 85.97 160.69 91.36 136.29
  C 94.41 122.52 110.77 112.72 116.71 98.95
  Q 120.14 90.99 121.66 80.37
  C 122.03 77.76 125.16 76.47 126.61 75.07
  C 140.69 61.45 137.28 38.99 119.20 31.40
  C 89.45 18.90 67.72 61.06 95.54 78.05
  Q 95.95 78.30 95.83 78.76"
/>
<path stroke="#80ccff" vector-effect="non-scaling-stroke" d="
  M 118.7890 55.7539
  A 9.75 9.31 -0.8 0 0 108.9100 46.5809
  A 9.75 9.31 -0.8 0 0 99.2910 56.0261
  A 9.75 9.31 -0.8 0 0 109.1700 65.1991
  A 9.75 9.31 -0.8 0 0 118.7890 55.7539"
/>
</g>
<path fill="#0099ff" d="
  M 104.31 0.00
  L 109.81 0.00
  C 167.07 2.39 211.94 46.90 214.00 104.57
  L 214.00 109.56
  C 211.52 166.98 167.49 211.79 109.68 214.00
  L 104.18 214.00
  Q 82.03 213.06 64.58 205.17
  Q 13.21 181.94 1.50 125.22
  Q 0.85 122.03 0.00 109.43
  L 0.00 104.70
  C 2.62 46.73 46.22 2.43 104.31 0.00
  Z
  M 95.83 78.76
  C 91.94 93.09 83.32 100.54 71.68 112.42
  Q 61.70 122.61 60.42 138.25
  C 55.54 197.94 152.41 205.44 156.61 145.07
  C 157.59 130.95 150.62 121.72 143.82 110.42
  Q 142.12 107.59 142.26 101.13
  Q 142.28 100.33 141.65 100.83
  C 133.15 107.54 134.15 117.06 134.17 128.17
  C 134.19 134.97 130.83 144.46 126.56 149.77
  C 114.41 164.84 85.97 160.69 91.36 136.29
  C 94.41 122.52 110.77 112.72 116.71 98.95
  Q 120.14 90.99 121.66 80.37
  C 122.03 77.76 125.16 76.47 126.61 75.07
  C 140.69 61.45 137.28 38.99 119.20 31.40
  C 89.45 18.90 67.72 61.06 95.54 78.05
  Q 95.95 78.30 95.83 78.76
  Z"
/>
<path fill="#ffffff" d="
  M 95.54 78.05
  C 67.72 61.06 89.45 18.90 119.20 31.40
  C 137.28 38.99 140.69 61.45 126.61 75.07
  C 125.16 76.47 122.03 77.76 121.66 80.37
  Q 120.14 90.99 116.71 98.95
  C 110.77 112.72 94.41 122.52 91.36 136.29
  C 85.97 160.69 114.41 164.84 126.56 149.77
  C 130.83 144.46 134.19 134.97 134.17 128.17
  C 134.15 117.06 133.15 107.54 141.65 100.83
  Q 142.28 100.33 142.26 101.13
  Q 142.12 107.59 143.82 110.42
  C 150.62 121.72 157.59 130.95 156.61 145.07
  C 152.41 205.44 55.54 197.94 60.42 138.25
  Q 61.70 122.61 71.68 112.42
  C 83.32 100.54 91.94 93.09 95.83 78.76
  Q 95.95 78.30 95.54 78.05
  Z
  M 118.7890 55.7539
  A 9.75 9.31 -0.8 0 0 108.9100 46.5809
  A 9.75 9.31 -0.8 0 0 99.2910 56.0261
  A 9.75 9.31 -0.8 0 0 109.1700 65.1991
  A 9.75 9.31 -0.8 0 0 118.7890 55.7539
  Z"
/>
<ellipse fill="#0099ff" cx="0.00" cy="0.00" transform="translate(109.04,55.89) rotate(-0.8)" rx="9.75" ry="9.31"/>
</svg>
